<svg width="40" height="40" viewBox="0 0 40 40" fill="none" xmlns="http://www.w3.org/2000/svg">
<path d="M7 28C5.89543 28 5 27.1046 5 26V24C5 22.8954 5.89543 22 7 22H33C34.1046 22 35 22.8954 35 24V26C35 27.1046 34.1046 28 33 28H7Z" fill="black"/>
<rect x="17" y="4" width="6" height="6" fill="black"/>
<rect x="17" y="30" width="6" height="6" fill="black"/>
<path d="M33 12C34.1046 12 35 12.8954 35 14V16C35 17.1046 34.1046 18 33 18H7C5.89543 18 5 17.1046 5 16V14C5 12.8954 5.89543 12 7 12H33Z" fill="black"/>
</svg>
