<svg width="42" height="33" viewBox="0 0 42 33" fill="none" xmlns="http://www.w3.org/2000/svg">
<path d="M8 31.82C8 31.3568 8.31806 30.9542 8.76867 30.8471L22.2503 27.6415C22.4141 27.6025 22.5851 27.6056 22.7475 27.6503L34.2659 30.8274C34.6996 30.947 35 31.3415 35 31.7914V31.83C35 32.4444 34.4512 32.9135 33.8443 32.8179L22.6449 31.0527C22.5488 31.0375 22.451 31.0365 22.3546 31.0496L9.13463 32.8458C8.53436 32.9274 8 32.4607 8 31.8549V31.82Z" fill="black"/>
<path d="M23 20.6866L24 30.5373H20L21 20.6866H23Z" fill="black"/>
<rect width="42" height="26.597" rx="2" fill="black"/>
<rect x="2" y="1.97015" width="38" height="22.6567" rx="1.7" fill="white"/>
<rect x="6" y="4.92537" width="7" height="3.9403" rx="1" fill="#615858"/>
<rect x="6" y="11.8209" width="4" height="0.985075" rx="0.492537" fill="#615858"/>
<rect x="6" y="9.85074" width="7" height="0.985075" rx="0.492537" fill="#615858"/>
<rect x="6" y="14.7761" width="7" height="3.9403" rx="1" fill="#615858"/>
<rect x="6" y="21.6716" width="4" height="0.985075" rx="0.492537" fill="#615858"/>
<rect x="6" y="19.7015" width="7" height="0.985075" rx="0.492537" fill="#615858"/>
<rect x="18" y="4.92537" width="7" height="3.9403" rx="1" fill="#615858"/>
<rect x="18" y="11.8209" width="4" height="0.985075" rx="0.492537" fill="#615858"/>
<rect x="18" y="9.85074" width="7" height="0.985075" rx="0.492537" fill="#615858"/>
<rect x="18" y="14.7761" width="7" height="3.9403" rx="1" fill="#615858"/>
<rect x="18" y="21.6716" width="4" height="0.985075" rx="0.492537" fill="#615858"/>
<rect x="18" y="19.7015" width="7" height="0.985075" rx="0.492537" fill="#615858"/>
<rect x="29" y="4.92537" width="7" height="3.9403" rx="1" fill="#615858"/>
<rect x="29" y="11.8209" width="4" height="0.985075" rx="0.492537" fill="#615858"/>
<rect x="29" y="9.85074" width="7" height="0.985075" rx="0.492537" fill="#615858"/>
<rect x="29" y="14.7761" width="7" height="3.9403" rx="1" fill="#615858"/>
<rect x="29" y="21.6716" width="4" height="0.985075" rx="0.492537" fill="#615858"/>
<rect x="29" y="19.7015" width="7" height="0.985075" rx="0.492537" fill="#615858"/>
</svg>
