<svg width="27" height="33" viewBox="0 0 27 33" fill="none" xmlns="http://www.w3.org/2000/svg">
<rect width="26" height="33" rx="2" fill="black"/>
<rect x="1" y="1" width="24" height="31" rx="1.6" fill="white"/>
<rect x="5" y="4" width="7" height="3.9403" rx="1" fill="#615858"/>
<rect x="5" y="10.8955" width="4" height="0.985075" rx="0.492537" fill="#615858"/>
<rect x="5" y="8.92538" width="7" height="0.985075" rx="0.492537" fill="#615858"/>
<rect x="5" y="14" width="7" height="3.9403" rx="1" fill="#615858"/>
<rect x="5" y="20.8955" width="4" height="0.985075" rx="0.492537" fill="#615858"/>
<rect x="5" y="18.9254" width="7" height="0.985075" rx="0.492537" fill="#615858"/>
<rect x="5" y="24" width="7" height="3.9403" rx="1" fill="#615858"/>
<rect x="5" y="30.8955" width="4" height="0.985075" rx="0.492537" fill="#615858"/>
<rect x="5" y="28.9254" width="7" height="0.985075" rx="0.492537" fill="#615858"/>
<rect x="14" y="4" width="7" height="3.9403" rx="1" fill="#615858"/>
<rect x="14" y="10.8955" width="4" height="0.985075" rx="0.492537" fill="#615858"/>
<rect x="14" y="8.92538" width="7" height="0.985075" rx="0.492537" fill="#615858"/>
<rect x="14" y="14" width="7" height="3.9403" rx="1" fill="#615858"/>
<rect x="14" y="20.8955" width="4" height="0.985075" rx="0.492537" fill="#615858"/>
<rect x="14" y="18.9254" width="7" height="0.985075" rx="0.492537" fill="#615858"/>
<rect x="14" y="24" width="7" height="3.9403" rx="1" fill="#615858"/>
<rect x="14" y="30.8955" width="4" height="0.985075" rx="0.492537" fill="#615858"/>
<rect x="14" y="28.9254" width="7" height="0.985075" rx="0.492537" fill="#615858"/>
<rect x="3" y="26" width="20" height="6" fill="white"/>
<circle cx="13" cy="29" r="1" fill="black"/>
<rect x="25" y="5" width="1.2" height="2" rx="0.6" fill="black"/>
<rect x="25" y="8" width="1.2" height="2" rx="0.6" fill="black"/>
</svg>
