<svg width="23" height="33" viewBox="0 0 23 33" fill="none" xmlns="http://www.w3.org/2000/svg">
<path d="M3.5166 7.58789L16.6865 7.91699C18.0689 7.95175 19.1417 9.09596 19.124 10.4453L19.1055 10.7178L16.7266 30.3018C16.574 31.5564 15.509 32.4998 14.2451 32.5H6.2002C4.95155 32.5 3.89435 31.5787 3.72363 30.3418L0.977539 10.4287C0.767 8.90151 1.97543 7.54937 3.5166 7.58789Z" stroke="#D31E1E"/>
<line x1="4.49752" y1="9.95025" x2="6.49752" y2="29.9502" stroke="#D31E1E"/>
<line x1="11" y1="11.0034" x2="10.8835" y2="28.053" stroke="#D31E1E"/>
<line x1="16.5981" y1="10.0654" x2="14.3959" y2="30.0442" stroke="#D31E1E"/>
<path d="M5.70685 1.70657L17.6779 3.03813C20.1274 3.31058 21.8926 5.51761 21.6201 7.96704C21.5889 8.24565 21.3314 8.44168 21.0543 8.39834L18.2477 7.95941L18.2206 7.95639L1.19038 6.2252L1.09138 6.20535C0.868654 6.13559 0.718832 5.9157 0.745587 5.67461C1.01985 3.20892 3.24116 1.4323 5.70685 1.70657Z" stroke="#D31E1E"/>
</svg>
